<?xml version="1.0" standalone="no"?>
<!DOCTYPE svg PUBLIC "-//W3C//DTD SVG 20010904//EN"
 "http://www.w3.org/TR/2001/REC-SVG-20010904/DTD/svg10.dtd">
<svg version="1.0" xmlns="http://www.w3.org/2000/svg"
 width="260.000000pt" height="260.000000pt" viewBox="0 0 260.000000 260.000000"
 preserveAspectRatio="xMidYMid meet">
<metadata>
Created by potrace 1.11, written by Peter Selinger 2001-2013
</metadata>
<g transform="translate(0.000000,260.000000) scale(0.100000,-0.100000)"
fill="#000000" stroke="none">
<path d="M200 2300 l0 -200 -100 0 -100 0 0 -440 0 -440 100 0 100 0 0 -120 0
-120 100 0 100 0 0 -435 0 -435 340 0 340 0 0 115 0 115 100 0 100 0 0 -115 0
-115 320 0 320 0 0 115 0 115 340 0 340 0 0 440 0 440 -120 0 -120 0 0 440 0
440 -320 0 -320 0 0 -220 0 -220 -120 0 -120 0 0 420 0 420 -200 0 -200 0 0
-100 0 -100 -220 0 -220 0 0 100 0 100 -220 0 -220 0 0 -200z"/>
</g>
</svg>
